<mxfile host="app.diagrams.net" modified="2024-02-01T15:03:39.181Z" agent="Mozilla/5.0 (Macintosh; Intel Mac OS X 10_15_7) AppleWebKit/537.36 (KHTML, like Gecko) Chrome/120.0.0.0 Safari/537.36" version="23.1.1" etag="Lo4WmUKODk_ROPHKOsqO" type="github">
  <diagram name="Page-1" id="l283XIESo04IFVKEFAFd">
    <mxGraphModel>
      <root>
        <mxCell id="0" />
        <mxCell id="1" parent="0" />
      </root>
    </mxGraphModel>
  </diagram>
</mxfile>
